<svg width="196" height="310" viewBox="0 0 196 310" fill="none" xmlns="http://www.w3.org/2000/svg">
<path d="M47 222.5H71.5C74.1667 222.5 76.5821 224.273 76.6553 226.939C76.7426 230.123 76.1233 233.969 74.2556 238M47 259.5C62.8584 253.773 70.7527 245.56 74.2556 238M74.2556 238H47M97 220V250M65.5 259.5H95.5C98.8137 259.5 101.5 262.186 101.5 265.5V278" stroke="black" stroke-width="8"/>
<path d="M112.5 222.5H137C139.667 222.5 142.082 224.273 142.155 226.939C142.243 230.123 141.623 233.969 139.756 238M112.5 259.5C128.358 253.773 136.253 245.56 139.756 238M139.756 238H112.5M162.5 220V250M131 259.5H161C164.314 259.5 167 262.186 167 265.5V278" stroke="black" stroke-width="8"/>
<ellipse cx="108" cy="140" rx="61" ry="60" fill="#1F1F45"/>
<path d="M122.5 157L130 136L147 130L160 145.5H165L158 166.5L155 163.5L136 171L122.5 157Z" fill="white"/>
<path d="M118.5 160H99L85.5 174L98 190L95 194H125L122 190L132.5 174L118.5 160Z" fill="white"/>
<path d="M56 145.5L67.5 130.5L87 136.5L95 159L82 174L62 167.5L60 171L51 143.5L56 145.5Z" fill="white"/>
<path d="M87 94L85.5 88L63.5 104.5L69 106.5V126L87 133L105.5 118.5V98.5L87 94Z" fill="white"/>
<path d="M111 118V99L130.5 94V89L151 104H146.5V126L128 132.5L111 118Z" fill="white"/>
<ellipse cx="82.4057" cy="91.1014" rx="41" ry="16" transform="rotate(-26.5774 82.4057 91.1014)" fill="#FFCD40"/>
<path d="M94.0261 58.4523C82.8457 75.5723 66.6521 83.4314 45.7323 82.6122C37.679 66.5142 44.3848 55.3324 58.6941 48.174C73.0034 41.0155 86.4202 43.2487 94.0261 58.4523Z" fill="#FFCD40"/>
<path d="M51.9959 95.133L44.8374 80.8237C46.1796 83.5067 59.9708 81.1162 72.5659 75.0035C85.1609 68.8909 94.9209 60.2412 93.5787 57.5582L100.737 71.8675C101.781 75.0723 98.5695 83.6854 80.8616 92.0968C63.1538 100.508 54.3815 97.294 51.9959 95.133Z" fill="#9E6351"/>
<path d="M21.456 305V293.16H23.824V298.296H23.856L27.792 293.16H30.4L26.768 297.816L31.024 305H28.448L25.376 299.688L23.824 301.672V305H21.456ZM41.8168 291.592H43.9448V306.456H41.8168V291.592ZM32.4088 301.272H33.7208C36.3448 301.272 38.4408 301.176 40.7928 300.776L41.0008 302.488C38.6008 302.92 36.4248 303 33.7208 303H32.4088V301.272ZM32.3928 292.856H39.3848V298.584H34.5688V301.912H32.4088V296.904H37.2088V294.552H32.3928V292.856ZM47.7035 292.968H57.0955V294.648H47.7035V292.968ZM46.3435 302.76H59.7355V304.488H46.3435V302.76ZM55.9755 292.968H58.0875V294.728C58.0875 296.808 58.0875 298.824 57.5595 301.864L55.4315 301.688C55.9755 298.84 55.9755 296.728 55.9755 294.728V292.968ZM61.7343 308.424L61.2543 307.144C62.5023 306.68 63.1903 305.832 63.1743 304.888L63.0943 303.224L63.9263 304.6C63.6863 304.84 63.3663 304.952 63.0143 304.952C62.2463 304.952 61.5423 304.44 61.5423 303.56C61.5423 302.712 62.2303 302.168 63.0783 302.168C64.1503 302.168 64.7583 303.032 64.7583 304.472C64.7583 306.36 63.6863 307.784 61.7343 308.424ZM79.4104 291.608H81.5384V300.536H79.4104V291.608ZM80.9464 295.256H83.5064V297H80.9464V295.256ZM71.9064 301.176H81.5384V306.264H71.9064V301.176ZM79.4584 302.856H74.0024V304.584H79.4584V302.856ZM69.8744 292.936H78.5944V294.616H69.8744V292.936ZM74.2424 295.048C76.3864 295.048 77.8744 296.136 77.8744 297.72C77.8744 299.32 76.3864 300.376 74.2424 300.376C72.0824 300.376 70.5944 299.32 70.5944 297.72C70.5944 296.136 72.0824 295.048 74.2424 295.048ZM74.2424 296.632C73.2824 296.632 72.6424 297 72.6424 297.72C72.6424 298.44 73.2824 298.824 74.2424 298.824C75.1864 298.824 75.8424 298.44 75.8424 297.72C75.8424 297 75.1864 296.632 74.2424 296.632ZM73.1704 291.512H75.2984V293.848H73.1704V291.512ZM86.4011 293.288H88.1931C88.1931 297.048 87.8411 300.36 86.0011 303.304L84.3691 302.424C86.0971 299.704 86.4011 297.128 86.4011 293.464V293.288ZM84.8491 293.288H87.5371V295H84.8491V293.288ZM89.7131 293.288H91.5051C91.5051 297.16 91.2811 300.856 89.2971 304.024L87.6651 303.128C89.5531 300.184 89.7131 297.176 89.7131 293.48V293.288ZM88.6411 293.288H90.9131V295H88.6411V293.288ZM95.4251 291.608H97.4571V306.424H95.4251V291.608ZM90.7851 297.16H92.8811V298.872H90.7851V297.16ZM92.5611 291.928H94.5451V305.768H92.5611V291.928ZM104.132 301.032H104.868C106.148 301.032 106.948 301.016 107.908 300.792L108.116 302.52C107.092 302.744 106.26 302.76 104.868 302.76H104.132V301.032ZM104.132 292.968H107.94V294.664H106.228V301.768H104.132V292.968ZM108.628 301.032H109.46C111.14 301.032 112.036 301 113.092 300.76L113.252 302.472C112.148 302.744 111.236 302.76 109.46 302.76H108.628V301.032ZM108.628 292.968H112.66V294.664H110.74V301.816H108.628V292.968ZM114.244 291.608H116.372V306.424H114.244V291.608ZM112.052 296.744H114.948V298.488H112.052V296.744ZM129.571 297.208H132.179V298.952H129.571V297.208ZM127.987 291.592H130.131V306.408H127.987V291.592ZM118.963 293.016H121.091V302.216H118.963V293.016ZM118.963 301.032H120.243C122.355 301.032 124.643 300.888 127.027 300.408L127.251 302.152C124.803 302.664 122.419 302.792 120.243 302.792H118.963V301.032ZM134.61 292.856H144.002V294.568H134.61V292.856ZM133.25 302.92H146.642V304.648H133.25V302.92ZM137.986 297.832H140.114V303.768H137.986V297.832ZM143.234 292.856H145.362V294.28C145.362 296.136 145.362 298.216 144.77 301.384L142.642 301.144C143.234 298.2 143.234 296.056 143.234 294.28V292.856ZM152.437 297.624H165.829V299.288H152.437V297.624ZM153.973 300.088H164.213V303.896H156.085V305.208H153.989V302.424H162.117V301.656H153.973V300.088ZM153.989 304.744H164.597V306.328H153.989V304.744ZM157.861 292.76H159.717V293.144C159.717 295.256 157.621 296.936 153.685 297.208L153.029 295.608C156.405 295.384 157.861 294.2 157.861 293.144V292.76ZM158.549 292.76H160.405V293.144C160.405 294.216 161.861 295.384 165.253 295.608L164.597 297.208C160.661 296.936 158.549 295.272 158.549 293.144V292.76ZM153.653 292.072H164.629V293.72H153.653V292.072ZM177.364 291.608H179.508V306.424H177.364V291.608ZM172.996 293.144H175.108C175.108 297.672 173.572 301.384 168.308 303.928L167.204 302.232C171.46 300.184 172.996 297.496 172.996 293.528V293.144ZM167.988 293.144H174.004V294.824H167.988V293.144ZM185.202 293.944H186.882V295.608C186.882 298.952 185.474 302.36 182.754 303.64L181.554 301.96C184.002 300.808 185.202 298.04 185.202 295.608V293.944ZM185.65 293.944H187.33V295.608C187.33 297.848 188.482 300.472 190.914 301.592L189.746 303.272C187.026 302.008 185.65 298.76 185.65 295.608V293.944ZM182.13 293.032H190.258V294.776H182.13V293.032ZM191.346 291.608H193.49V306.424H191.346V291.608ZM193.01 297.256H195.634V299.016H193.01V297.256Z" fill="black"/>
</svg>
