<svg width="60" height="60" viewBox="0 0 60 60" fill="none" xmlns="http://www.w3.org/2000/svg">
<ellipse cx="30" cy="29.5082" rx="30" ry="29.5082" fill="#1F1F45"/>
<path d="M37.1311 37.869L40.8196 27.5412L49.1803 24.5903L55.5737 32.2133H58.0327L54.5901 42.5412L53.1147 41.0657L43.7704 44.7543L37.1311 37.869Z" fill="white"/>
<path d="M35.164 39.3442H25.5738L18.9344 46.2295L25.082 54.0983L23.6066 56.0655H38.3607L36.8853 54.0983L42.0492 46.2295L35.164 39.3442Z" fill="white"/>
<path d="M4.42618 32.213L10.0819 24.8359L19.6721 27.7868L23.6065 38.8523L17.2131 46.2294L7.377 43.0327L6.39339 44.754L1.96716 31.2294L4.42618 32.213Z" fill="white"/>
<path d="M19.6721 6.88539L18.9344 3.93457L8.11475 12.0493L10.8197 13.0329V22.6231L19.6721 26.0657L28.7705 18.9346V9.09851L19.6721 6.88539Z" fill="white"/>
<path d="M31.4755 18.6886V9.3443L41.0656 6.88529V4.42627L51.1476 11.8033H48.9345V22.623L39.8361 25.8197L31.4755 18.6886Z" fill="white"/>
</svg>
